<svg width="14" height="24" viewBox="0 0 14 24" fill="none" xmlns="http://www.w3.org/2000/svg"><path d="M5.89244 16.5984C4.14816 16.4164 2.57544 15.9869 1.22894 14.9337C1.06187 14.8027 0.889372 14.6764 0.736907 14.5301C0.147549 13.9641 0.0881655 13.3158 0.554515 12.6477C0.953468 12.076 1.62318 11.9231 2.31929 12.2514C2.45408 12.315 2.58251 12.3944 2.70552 12.4797C5.21494 14.2039 8.66225 14.2515 11.1811 12.5572C11.4307 12.3659 11.6974 12.2099 12.0066 12.1302C12.6077 11.9759 13.1683 12.1967 13.4909 12.7227C13.8595 13.3233 13.8548 13.9096 13.4007 14.376C12.7041 15.0909 11.8664 15.6082 10.9356 15.9692C10.0554 16.3104 9.09137 16.4822 8.13723 16.5963C8.28121 16.753 8.34908 16.83 8.43909 16.9205C9.73469 18.2222 11.0359 19.5185 12.3273 20.8243C12.7673 21.2692 12.8592 21.8208 12.6169 22.3383C12.352 22.9039 11.7592 23.2759 11.1778 23.2361C10.8095 23.2107 10.5222 23.0273 10.267 22.7702C9.28932 21.7864 8.29323 20.8207 7.33531 19.8183C7.05654 19.5268 6.92246 19.5819 6.67644 19.835C5.69284 20.8476 4.69322 21.8446 3.6877 22.836C3.2362 23.2811 2.69892 23.3612 2.17531 23.107C1.61871 22.8372 1.26453 22.269 1.29186 21.698C1.31071 21.3118 1.50065 21.0168 1.76575 20.7521C3.04792 19.4719 4.32655 18.1883 5.60565 16.9059C5.69025 16.8206 5.76919 16.7301 5.89244 16.5984Z" fill="#7E7F85"/><path d="M6.95497 12.1387C3.84323 12.1281 1.29162 9.54846 1.30977 6.43176C1.32768 3.28066 3.88093 0.741303 7.02331 0.750022C10.172 0.758506 12.6994 3.33439 12.6836 6.51825C12.6676 9.62858 10.0983 12.1496 6.95497 12.1387ZM9.78299 6.4393C9.77757 4.89179 8.54513 3.65982 7.00069 3.65841C5.44328 3.65676 4.19977 4.91112 4.21178 6.47277C4.22333 8.01438 5.46638 9.23764 7.01506 9.23198C8.55903 9.22656 9.78817 7.98658 9.78299 6.4393Z" fill="#7E7F85"/></svg>