<svg width="18" height="16" viewBox="0 0 18 16" fill="none" xmlns="http://www.w3.org/2000/svg"><path d="M0.556863 7.69988L4.5802 9.17401L6.1486 14.1324C6.2168 14.4675 6.62595 14.5345 6.89872 14.3335L9.14904 12.5243C9.35362 12.3233 9.69459 12.3233 9.96735 12.5243L13.9907 15.4056C14.2634 15.6066 14.6726 15.4726 14.7408 15.1375L17.7412 1.0663C17.8094 0.731271 17.4685 0.396244 17.1275 0.530256L0.556863 6.82881C0.147712 6.96282 0.147712 7.56587 0.556863 7.69988ZM5.94404 8.43694L13.8543 3.67953C13.9907 3.61252 14.1271 3.81354 13.9907 3.88055L7.51244 9.84407C7.30787 10.0451 7.10329 10.3131 7.10329 10.6481L6.89872 12.2563C6.89872 12.4573 6.55776 12.5243 6.48956 12.2563L5.67125 9.30802C5.46668 8.97299 5.60308 8.57096 5.94404 8.43694Z" fill="#7E7F85"/></svg>