<svg width="20" height="17" viewBox="0 0 20 17" fill="none" xmlns="http://www.w3.org/2000/svg"><path fill-rule="evenodd" clip-rule="evenodd" d="M20 2.17493C19.263 2.50023 18.4723 2.72107 17.6428 2.81956C18.4902 2.31221 19.1407 1.50643 19.445 0.548439C18.6514 1.01997 17.7741 1.36019 16.8402 1.54523C16.0913 0.748393 15.0261 0.25 13.8445 0.25C11.5799 0.25 9.74191 2.08838 9.74191 4.35354C9.74191 4.67585 9.77771 4.98921 9.84932 5.28765C6.43891 5.11754 3.41638 3.48209 1.39341 0.999082C1.04132 1.60491 0.838431 2.30923 0.838431 3.06129C0.838431 4.48485 1.56348 5.74128 2.66448 6.47544C1.99314 6.45455 1.36058 6.26951 0.805609 5.96212C0.805609 5.98003 0.805609 5.99495 0.805609 6.01286C0.805609 8.00046 2.2199 9.65978 4.09667 10.0358C3.75354 10.1283 3.38953 10.1791 3.01656 10.1791C2.75101 10.1791 2.49441 10.1522 2.24377 10.1045C2.76593 11.7339 4.28166 12.9217 6.07489 12.9545C4.66955 14.0558 2.90318 14.7124 0.978666 14.7124C0.647471 14.7124 0.322244 14.6915 0 14.6556C1.81411 15.8196 3.97136 16.5 6.28972 16.5C13.8356 16.5 17.9621 10.2477 17.9621 4.82507C17.9621 4.64601 17.9591 4.46993 17.9502 4.29385C18.7528 3.71488 19.448 2.99265 19.997 2.16896L20 2.17493Z" fill="#7E7F85"/></svg>