<svg width="18" height="14" viewBox="0 0 18 14" fill="none" xmlns="http://www.w3.org/2000/svg"><path d="M9.78154 13.25C3.80247 13.25 0.392099 8.55781 0.25 0.75H3.245C3.34338 6.48073 5.55137 8.90816 7.30028 9.40866V0.75H10.1204V5.69244C11.8474 5.47973 13.6619 3.22748 14.274 0.75H17.0942C16.8635 2.03489 16.4037 3.25148 15.7435 4.32366C15.0834 5.39585 14.2371 6.30057 13.2575 6.98123C14.3509 7.60317 15.3167 8.48348 16.0911 9.56406C16.8655 10.6446 17.4309 11.9009 17.75 13.25H14.6457C14.3592 12.0782 13.777 11.0293 12.972 10.2347C12.167 9.44004 11.175 8.93507 10.1204 8.78303V13.25H9.78154Z" fill="#7E7F85"/></svg>